<svg xmlns="http://www.w3.org/2000/svg"  viewBox="0 0 100 100" width="50px" height="50px"><circle cx="77" cy="14" r="1" fill="#f1bc19"/><circle cx="49.759" cy="50.865" r="37" fill="#e6edb7"/><circle cx="83" cy="16" r="4" fill="#f1bc19"/><circle cx="87" cy="25" r="2" fill="#88ae45"/><circle cx="81" cy="77" r="2" fill="#fbcd59"/><circle cx="15" cy="64" r="4" fill="#fbcd59"/><circle cx="25" cy="88" r="2" fill="#88ae45"/><circle cx="18.5" cy="52.5" r="2.5" fill="#fff"/><circle cx="79.5" cy="34.5" r="1.5" fill="#fff"/><path fill="#f05b6c" d="M74.466,35.854l-3.03,6.293l-2.89-6.293l-4.662-0.14l-29.789,0.14l-0.047,2.144l-2.424-2.238	l-13.799,0.047l1.771,3.496l0.047,30.768l14.871-10.256l9.557,5.501l5.268-4.429l5.314,4.382l9.836-5.594l4.522,3.403l0.233-6.853	l2.305,4.288l2.217-4.521v10.163l6.387,4.755l0.233-32.633l1.771-2.471L74.466,35.854z M25.568,56.761l-0.029-14.219l3.938-0.029	l0.058,11.931L25.568,56.761z M43.376,56.724l-4.059-2.127l0.141-11.97l4.021,0.047L43.376,56.724z M54.317,57.256l-0.07-14.647	h4.507l0.07,11.76L54.317,57.256z"/><path fill="#472b29" d="M80.242,71.7c-0.148,0-0.297-0.047-0.42-0.14l-6.529-4.897c-0.177-0.132-0.28-0.34-0.28-0.56v-7.099 l-0.922,2.005c-0.113,0.247-0.36,0.406-0.633,0.408c-0.001,0-0.002,0-0.003,0c-0.271,0-0.518-0.157-0.633-0.402l-0.865-1.835 l-0.009,4.017c-0.001,0.265-0.151,0.507-0.388,0.625c-0.239,0.118-0.521,0.092-0.733-0.067l-4.414-3.316l-9.51,5.463 c-0.263,0.152-0.598,0.115-0.823-0.093l-4.675-4.315l-4.96,4.329c-0.229,0.2-0.559,0.229-0.819,0.073l-9.104-5.443l-14.408,9.917 c-0.213,0.146-0.493,0.163-0.722,0.043c-0.23-0.121-0.375-0.359-0.375-0.619l-0.023-30.763l-1.896-2.931 c-0.139-0.215-0.149-0.489-0.027-0.714s0.357-0.366,0.614-0.366l13.723-0.023h0.001c0.175,0,0.343,0.065,0.472,0.183l1.737,1.583 l0.009-1.049c0.004-0.384,0.315-0.693,0.699-0.694l34.048-0.025c0.001,0,0.001,0,0.001,0c0.275,0,0.525,0.162,0.638,0.413 l2.348,5.204l2.16-5.171c0.108-0.26,0.362-0.43,0.645-0.43l8.034-0.006c0.001,0,0.001,0,0.001,0c0.26,0,0.499,0.145,0.62,0.375 c0.121,0.23,0.104,0.509-0.044,0.724l-1.786,2.585l-0.048,32.316c-0.001,0.265-0.15,0.507-0.388,0.625 C80.456,71.676,80.349,71.7,80.242,71.7z M74.413,65.752l5.131,3.849l0.047-31.136c0-0.142,0.044-0.28,0.124-0.397l1.15-1.666 l-6.232,0.005l-2.603,6.229c-0.107,0.257-0.357,0.426-0.636,0.43c-0.003,0-0.007,0-0.01,0c-0.275,0-0.524-0.161-0.638-0.413 l-2.824-6.261l-32.902,0.025l-0.017,1.921c-0.003,0.276-0.167,0.525-0.42,0.635c-0.256,0.109-0.548,0.061-0.752-0.124l-2.693-2.454 l-12.167,0.02l1.311,2.026c0.073,0.113,0.112,0.245,0.112,0.38l0.022,29.639L34.1,59.043c0.226-0.155,0.521-0.165,0.756-0.024 l9.053,5.413l5.05-4.407c0.27-0.235,0.673-0.23,0.935,0.013l4.759,4.393l9.465-5.437c0.243-0.139,0.545-0.122,0.77,0.047 l3.666,2.754l0.013-5.732c0.001-0.328,0.229-0.611,0.548-0.682c0.323-0.075,0.646,0.089,0.785,0.385l1.55,3.291l1.63-3.543 c0.138-0.299,0.465-0.462,0.785-0.391c0.321,0.07,0.551,0.354,0.551,0.684V65.752z"/><path fill="#472b29" d="M25.481,57.291c-0.085,0-0.171-0.022-0.247-0.065c-0.156-0.089-0.253-0.255-0.253-0.435V42.513 c0-0.274,0.222-0.498,0.496-0.5l4.008-0.035c0.132,0.002,0.262,0.051,0.355,0.145c0.095,0.094,0.148,0.221,0.148,0.354 l0.025,11.913c0,0.177-0.093,0.34-0.244,0.431l-4.033,2.399C25.658,57.267,25.57,57.291,25.481,57.291z M25.981,43.009v12.902 l3.032-1.804L28.99,42.983L25.981,43.009z"/><g><path fill="#472b29" d="M54.505,57.422c-0.083,0-0.167-0.021-0.242-0.063c-0.159-0.088-0.258-0.255-0.258-0.437V42.475 c0-0.276,0.224-0.5,0.5-0.5h4.001c0.133,0,0.26,0.053,0.354,0.146c0.094,0.094,0.146,0.221,0.146,0.354l-0.014,11.96 c0,0.172-0.089,0.333-0.235,0.424l-3.987,2.486C54.688,57.396,54.597,57.422,54.505,57.422z M55.005,42.975v13.046l2.987-1.863 l0.013-11.183H55.005z M58.492,54.436h0.01H58.492z"/></g><g><path fill="#472b29" d="M43.495,57.334c-0.086,0-0.171-0.022-0.248-0.066l-3.99-2.28c-0.156-0.089-0.252-0.255-0.252-0.434 V42.511c0-0.276,0.224-0.5,0.499-0.5l3.999-0.009h0.001c0.133,0,0.26,0.053,0.354,0.146c0.094,0.094,0.146,0.222,0.146,0.354 l-0.009,14.333c0,0.178-0.095,0.343-0.249,0.432C43.668,57.312,43.582,57.334,43.495,57.334z M40.005,54.265l2.991,1.708 l0.008-12.971l-2.999,0.007V54.265z"/></g><g><path fill="#472b29" d="M34.514,51.995c-0.275,0-0.499-0.223-0.5-0.499L33.99,38.403c-0.001-0.276,0.223-0.5,0.499-0.501 h0.001c0.275,0,0.499,0.223,0.5,0.499l0.023,13.093C35.015,51.771,34.791,51.995,34.514,51.995L34.514,51.995z"/></g><g><path fill="#472b29" d="M34.514,59.79c-0.276,0-0.5-0.224-0.5-0.5v-2.777c0-0.276,0.224-0.5,0.5-0.5s0.5,0.224,0.5,0.5 v2.777C35.014,59.566,34.79,59.79,34.514,59.79z"/></g><g><path fill="#472b29" d="M49.506,52.991c-0.276,0-0.5-0.224-0.5-0.5l-0.014-16.189c0-0.276,0.224-0.5,0.5-0.5l0,0 c0.276,0,0.5,0.224,0.5,0.5l0.014,16.189C50.006,52.767,49.782,52.991,49.506,52.991L49.506,52.991z"/></g><g><path fill="#472b29" d="M49.517,61.102c-0.274,0-0.498-0.221-0.5-0.496l-0.024-3.087c-0.002-0.276,0.22-0.502,0.496-0.504 c0.001,0,0.003,0,0.004,0c0.274,0,0.498,0.221,0.5,0.496l0.024,3.087c0.002,0.276-0.22,0.502-0.496,0.504 C49.52,61.102,49.518,61.102,49.517,61.102z"/></g><g><path fill="#472b29" d="M64.465,59.855c-0.276,0-0.5-0.224-0.5-0.5V41.56c0-0.276,0.224-0.5,0.5-0.5s0.5,0.224,0.5,0.5 v17.795C64.965,59.631,64.741,59.855,64.465,59.855z"/></g><g><path fill="#472b29" d="M64.49,39.1c-0.001,0-0.003,0-0.005,0c-0.275-0.002-0.498-0.229-0.495-0.504l0.021-2.401 c0.003-0.275,0.226-0.496,0.5-0.496c0.001,0,0.003,0,0.005,0c0.275,0.002,0.498,0.229,0.495,0.504l-0.021,2.401 C64.987,38.879,64.765,39.1,64.49,39.1z"/></g></svg>