<svg fill="#000000" xmlns="http://www.w3.org/2000/svg"  viewBox="0 0 30 30" width="30px" height="30px"><path d="M11.166 20.194c.806.577 2.809 1.923 3.222 2.358.412.435.023 1.099.023 1.099l.618.252c.137-.298.962-1.397 1.511-2.084.496-.62.926-1.706.941-2.503.047-2.572-3.367-3.794-4.949-5.237-.778-.71-.16-1.122-.16-1.122l-.527-.343C9.808 14.926 7.662 17.686 11.166 20.194zM12.922 11.605c1.969 1.74 5.435 3.548 5.679 4.717.318 1.523-.412 2.382-.412 2.382l.394.321c.213-.304.451-.591.67-.891.892-1.222 1.752-2.463 2.629-3.695 2.004-2.818 1.254-5.49-1.765-7.648-1.537-1.098-3.032-2.26-4.584-3.339-.871-.733-.275-2.107-.275-2.107l-.367-.32c0 0-3.286 3.984-3.573 5.588C11.045 8.148 10.953 9.865 12.922 11.605zM23 27L22.341 25 7.659 25 7 27 11.19 27 11.822 29 18.217 29 18.816 27z"/></svg>