<svg xmlns="http://www.w3.org/2000/svg" xmlns:xlink="http://www.w3.org/1999/xlink" viewBox="0 0 100 100" width="100px" height="100px"><defs><rect id="UsdG41ECQb1AlL7MtCeSba" width="100" height="84.444" x="-125" y="-488.867"/></defs><clipPath id="UsdG41ECQb1AlL7MtCeSbb"><use overflow="visible" xlink:href="#UsdG41ECQb1AlL7MtCeSba"/></clipPath><g clip-path="url(#UsdG41ECQb1AlL7MtCeSbb)"><defs><rect id="UsdG41ECQb1AlL7MtCeSbc" width="1046.667" height="1486.667" x="-449.444" y="-1231.089"/></defs></g><polygon fill="#4b4dff" points="79,78 18.126,78 18.126,19 78.622,19"/><path fill="#4343bf" d="M80.949,81H15V16h67.052L80.949,81z M21,75h54.051l0.897-53H21V75z"/><g><polygon fill="#3abcf8" points="85,85 21,85 21,75 75,75 75,22 85,22"/></g><g><path fill="#edf7f5" d="M50.17,54.334c-0.247-0.373-0.52-0.724-0.83-1.035h-7.761l11.956-20.404 c0.698-1.191,0.298-2.723-0.892-3.421c-1.193-0.698-2.725-0.298-3.42,0.893l-1.45,2.473l-1.45-2.475 c-0.697-1.192-2.228-1.59-3.42-0.893c-1.192,0.697-1.592,2.228-0.893,3.42l2.866,4.892l-9.092,15.515H28.5 c-1.382,0-2.5,1.108-2.5,2.473c0,1.365,1.118,2.474,2.5,2.474h22.323c0.323-1.088,0.235-2.304-0.368-3.43L50.17,54.334z"/><path fill="#edf7f5" d="M32.376,61.62c-0.528-0.015-1.046,0.043-1.553,0.145l-0.812,1.385 c-0.698,1.191-0.298,2.723,0.893,3.421c0.397,0.233,0.833,0.343,1.262,0.343c0.858,0,1.695-0.444,2.158-1.235l1.442-2.462 c-0.812-0.927-1.983-1.557-3.383-1.599H32.376z"/><path fill="#edf7f5" d="M67.5,53.299h-7.738L52.85,41.506l-1.272,2.172c-0.74,1.583-0.84,3.373-0.308,5.018l9.953,16.985 c0.465,0.793,1.3,1.235,2.159,1.235c0.428,0,0.865-0.11,1.262-0.343c1.191-0.698,1.59-2.23,0.891-3.421l-2.875-4.905h4.84 c1.382,0,2.5-1.108,2.5-2.474C70,54.407,68.882,53.299,67.5,53.299z"/></g></svg>