<svg width="0" height="0" class="hidden">
  <symbol version="1.1" id="chevron-svgrepo-com (1)" xmlns="http://www.w3.org/2000/svg" xmlns:xlink="http://www.w3.org/1999/xlink" x="0px" y="0px" xml:space="preserve" viewBox="0 0 511.147 511.147">
    <g transform="translate(1 1)">
      <g>
        <path d="M507.587,231.175L260.12,9.308c-2.56-2.56-7.68-2.56-11.093,0L1.56,231.175c-1.707,0.853-2.56,3.413-2.56,5.973v85.333
			v85.333v85.333c0,3.413,1.707,6.827,5.12,7.68c3.413,1.707,6.827,0.853,9.387-0.853L255,283.228l241.493,215.893
			c1.707,1.707,4.267,2.56,5.973,2.56c0.853,0,2.56,0,2.56-0.853c3.413-0.853,5.12-4.267,5.12-7.68v-85.333v-85.333v-85.333
			C510.147,235.442,509.293,232.882,507.587,231.175z M255,27.228l238.933,214.187v62.293L260.973,94.642
			c-1.707-1.707-4.267-2.56-5.973-2.56s-4.267,0.853-5.973,2.56L16.067,303.502v-62.087L255,27.228z M16.067,327.011L255,112.562
			l238.933,214.187v62.293l-232.96-209.067c-1.707-1.707-4.267-2.56-5.973-2.56s-4.267,0.853-5.973,2.56L16.067,388.836V327.011z
			 M493.933,474.375l-232.96-209.067c-1.707-1.707-4.267-2.56-5.973-2.56s-4.267,0.853-5.973,2.56L16.067,474.375v-62.031
			L255,197.895l238.933,214.187V474.375z"></path>
      </g>
    </g>
    <g></g>
    <g></g>
    <g></g>
    <g></g>
    <g></g>
    <g></g>
    <g></g>
    <g></g>
    <g></g>
    <g></g>
    <g></g>
    <g></g>
    <g></g>
    <g></g>
    <g></g>
  </symbol>
  <symbol version="1.1" id="chevron-svgrepo-com (2)" xmlns="http://www.w3.org/2000/svg" xmlns:xlink="http://www.w3.org/1999/xlink" x="0px" y="0px" xml:space="preserve" viewBox="0 0 512 512">
    <path d="M338.872,470.495H219.255c-5.498,0-10.513-3.146-12.905-8.098c-2.392-4.952-1.74-10.835,1.677-15.142
	l158.794-200.163c4.917-6.203,13.934-7.241,20.135-2.32c6.202,4.919,7.241,13.934,2.32,20.135L248.919,441.831h83.028L479.371,256
	L331.948,70.169H248.92l82.886,104.478c4.92,6.202,3.881,15.217-2.32,20.135c-6.199,4.92-15.215,3.881-20.135-2.32L208.029,64.745
	c-3.418-4.307-4.069-10.19-1.677-15.142c2.392-4.952,7.407-8.098,12.905-8.098h119.617c4.374,0,8.509,1.998,11.228,5.425
	l158.794,200.163c4.139,5.217,4.139,12.598,0,17.815L350.1,465.069C347.381,468.496,343.246,470.495,338.872,470.495z"></path>
    <polygon points="133.949,55.837 292.745,256 133.949,456.163 14.332,456.163 173.127,256 14.332,55.837 "></polygon>
    <path d="M133.949,470.495H14.332c-5.499,0-10.513-3.146-12.905-8.098c-2.392-4.952-1.74-10.835,1.677-15.142
	L154.833,256L3.104,64.745c-3.418-4.307-4.069-10.19-1.677-15.142s7.405-8.098,12.905-8.098h119.617
	c4.374,0,8.509,1.998,11.228,5.425l158.796,200.163c4.139,5.217,4.139,12.598,0,17.815L145.177,465.069
	C142.458,468.496,138.324,470.495,133.949,470.495z M43.997,441.831h83.028L274.45,256L127.025,70.169H43.997l140.359,176.923
	c4.139,5.217,4.139,12.598,0,17.815L43.997,441.831z"></path>
    <g></g>
    <g></g>
    <g></g>
    <g></g>
    <g></g>
    <g></g>
    <g></g>
    <g></g>
    <g></g>
    <g></g>
    <g></g>
    <g></g>
    <g></g>
    <g></g>
    <g></g>
  </symbol>
  <symbol version="1.1" id="chevron-svgrepo-com (3)" xmlns="http://www.w3.org/2000/svg" xmlns:xlink="http://www.w3.org/1999/xlink" x="0px" y="0px" xml:space="preserve" viewBox="0 0 511.999 511.999">
    <path d="M172.548,256.005L388.82,39.729c9.089-9.089,9.089-23.824,0-32.912s-23.824-9.089-32.912,0.002
	L123.18,239.551c-4.366,4.363-6.817,10.282-6.817,16.454c0,6.173,2.453,12.093,6.817,16.457l232.727,232.721
	c4.543,4.544,10.499,6.816,16.455,6.816s11.913-2.271,16.457-6.817c9.089-9.089,9.089-23.824,0-32.912L172.548,256.005z"></path>
    <g></g>
    <g></g>
    <g></g>
    <g></g>
    <g></g>
    <g></g>
    <g></g>
    <g></g>
    <g></g>
    <g></g>
    <g></g>
    <g></g>
    <g></g>
    <g></g>
    <g></g>
  </symbol>
  <symbol version="1.1" id="chevron-svgrepo-com (4)" xmlns="http://www.w3.org/2000/svg" xmlns:xlink="http://www.w3.org/1999/xlink" x="0px" y="0px" xml:space="preserve" viewBox="0 0 512.001 512.001">
    <path d="M388.819,239.537L156.092,6.816c-9.087-9.089-23.824-9.089-32.912,0.002
	c-9.087,9.089-9.087,23.824,0.002,32.912l216.27,216.266L123.179,472.272c-9.087,9.089-9.087,23.824,0.002,32.912
	c4.543,4.544,10.499,6.816,16.455,6.816c5.956,0,11.913-2.271,16.457-6.817L388.819,272.45c4.366-4.364,6.817-10.283,6.817-16.455
	C395.636,249.822,393.185,243.902,388.819,239.537z"></path>
    <g></g>
    <g></g>
    <g></g>
    <g></g>
    <g></g>
    <g></g>
    <g></g>
    <g></g>
    <g></g>
    <g></g>
    <g></g>
    <g></g>
    <g></g>
    <g></g>
    <g></g>
  </symbol>
  <symbol version="1.1" id="chevron-svgrepo-com" xmlns="http://www.w3.org/2000/svg" xmlns:xlink="http://www.w3.org/1999/xlink" x="0px" y="0px" xml:space="preserve" viewBox="0 0 512.001 512.001">
    <path d="M388.819,239.537L156.092,6.816c-9.087-9.089-23.824-9.089-32.912,0.002
	c-9.087,9.089-9.087,23.824,0.002,32.912l216.27,216.266L123.179,472.272c-9.087,9.089-9.087,23.824,0.002,32.912
	c4.543,4.544,10.499,6.816,16.455,6.816c5.956,0,11.913-2.271,16.457-6.817L388.819,272.45c4.366-4.364,6.817-10.283,6.817-16.455
	C395.636,249.822,393.185,243.902,388.819,239.537z"></path>
    <g></g>
    <g></g>
    <g></g>
    <g></g>
    <g></g>
    <g></g>
    <g></g>
    <g></g>
    <g></g>
    <g></g>
    <g></g>
    <g></g>
    <g></g>
    <g></g>
    <g></g>
  </symbol>
  <symbol version="1.1" xmlns="http://www.w3.org/2000/svg" xmlns:xlink="http://www.w3.org/1999/xlink" enable-background="new 0 0 463 463" viewBox="0 0 463 463" id="clock-svgrepo-com (1)">
    <g>
      <g>
        <path d="m398.897,333.618l-73.17-18.254c-0.273-0.412-0.573-0.809-0.931-1.167l-23.992-24c-1.069-1.069-2.428-1.78-3.892-2.061 50.88-24.456 86.088-76.511 86.088-136.636 0-83.537-67.963-151.5-151.5-151.5s-151.5,67.963-151.5,151.5c0,60.125 35.208,112.18 86.089,136.637-1.464,0.281-2.823,0.991-3.892,2.061l-23.992,24c-0.349,0.349-0.643,0.735-0.911,1.135l-73.195,18.287c-31.017,7.754-48.099,26.791-48.099,53.604v52.276c0,12.958 10.542,23.5 23.5,23.5h384c12.958,0 23.5-10.542 23.5-23.5v-52.276c0-26.813-17.082-45.85-48.103-53.606zm-88.696-12.804c-5.75,10.374-19.851,35.742-33.063,59.501-0.031,0.056-0.096,0.172-0.279,0.216-0.212,0.056-0.365-0.048-0.414-0.081l-16.738-11.159c-0.011-0.007-0.021-0.014-0.032-0.021l-16.403-10.936 52.227-52.227 14.702,14.707zm-86.701,94.186h16c0.558,0 1.109-0.027 1.658-0.065l5.628,33.065h-30.572l5.628-33.065c0.549,0.038 1.1,0.065 1.658,0.065zm24.5-23.5c0,4.687-3.813,8.5-8.5,8.5h-16c-4.687,0-8.5-3.813-8.5-8.5v-11.986l16.5-11 16.5,11v11.986zm-153-240c0-75.267 61.233-136.5 136.5-136.5s136.5,61.233 136.5,136.5-61.233,136.5-136.5,136.5-136.5-61.233-136.5-136.5zm136.5,151.5c20.175,0 39.437-3.974 57.057-11.164l-57.057,57.057-57.057-57.057c17.62,7.19 36.882,11.164 57.057,11.164zm-63.999,3.107l52.227,52.227-16.405,10.937c-0.009,0.006-0.018,0.012-0.027,0.018l-16.739,11.16c-0.05,0.033-0.201,0.138-0.415,0.082-0.184-0.044-0.248-0.16-0.279-0.217-13.212-23.758-27.313-49.126-33.063-59.5l14.701-14.707zm-136.501,133.393v-52.276c0-19.819 12.36-32.958 36.736-39.052l72.972-18.232c4.324,7.808 13.291,23.943 32.043,57.665 2.09,3.759 5.683,6.494 9.856,7.505 1.196,0.29 2.414,0.433 3.629,0.433 3.044,0 6.063-0.896 8.638-2.611l5.125-3.417v1.986c0,6.862 2.957,13.045 7.663,17.346l-6.663,39.153h-97.999v-40.5c0-4.143-3.357-7.5-7.5-7.5s-7.5,3.357-7.5,7.5v40.5h-48.5c-4.687,0-8.5-3.813-8.5-8.5zm401,0c0,4.687-3.813,8.5-8.5,8.5h-48.5v-40.5c0-4.143-3.357-7.5-7.5-7.5s-7.5,3.357-7.5,7.5v40.5h-97.999l-6.665-39.154c4.706-4.3 7.663-10.484 7.663-17.346v-1.986l5.126,3.417c2.574,1.716 5.593,2.61 8.637,2.61 1.214,0 2.434-0.143 3.629-0.433 4.174-1.011 7.767-3.746 9.856-7.504 18.733-33.687 27.7-49.824 32.03-57.641l72.985,18.208c24.378,6.095 36.738,19.233 36.738,39.053v52.276z"></path>
        <path d="m351,151.5c0-65.893-53.607-119.5-119.5-119.5s-119.5,53.607-119.5,119.5 53.607,119.5 119.5,119.5 119.5-53.607 119.5-119.5zm-223.728,7.5h16.228c4.143,0 7.5-3.357 7.5-7.5s-3.357-7.5-7.5-7.5h-16.228c3.681-51.656 45.073-93.047 96.728-96.728v16.228c0,4.143 3.357,7.5 7.5,7.5s7.5-3.357 7.5-7.5v-16.228c51.66,3.682 93.053,45.079 96.729,96.74-0.077-0.002-0.152-0.011-0.229-0.011h-16c-4.143,0-7.5,3.357-7.5,7.5s3.357,7.5 7.5,7.5h16c0.077,0 0.152-0.009 0.229-0.011-3.676,51.661-45.069,93.058-96.729,96.74v-16.23c0-4.143-3.357-7.5-7.5-7.5s-7.5,3.357-7.5,7.5v16.228c-51.656-3.681-93.047-45.072-96.728-96.728z"></path>
        <path d="m221.061,172.546c3.147,1.567 6.691,2.454 10.439,2.454 10.336,0 19.128-6.71 22.266-16h33.734c4.143,0 7.5-3.357 7.5-7.5s-3.357-7.5-7.5-7.5h-33.734c-0.342-1.012-0.749-1.993-1.219-2.939l40.258-40.258c2.929-2.93 2.929-7.678 0-10.607-2.93-2.928-7.678-2.928-10.607,0l-40.258,40.258c-3.147-1.567-6.691-2.454-10.439-2.454-10.336,0-19.128,6.71-22.266,16h-9.735c-4.143,0-7.5,3.357-7.5,7.5s3.357,7.5 7.5,7.5h9.734c0.342,1.012 0.749,1.993 1.219,2.939l-13.11,13.11c-2.929,2.93-2.929,7.678 0,10.607 1.465,1.464 3.385,2.196 5.304,2.196s3.839-0.732 5.304-2.196l13.11-13.11zm10.439-29.546c4.687,0 8.5,3.813 8.5,8.5s-3.813,8.5-8.5,8.5-8.5-3.813-8.5-8.5 3.813-8.5 8.5-8.5z"></path>
      </g>
    </g>
  </symbol>
  <symbol version="1.1" id="clock-svgrepo-com" xmlns="http://www.w3.org/2000/svg" xmlns:xlink="http://www.w3.org/1999/xlink" x="0px" y="0px" xml:space="preserve" viewBox="0 0 297 297">
    <g>
      <g>
        <g>
          <path d="M148.5,0C66.617,0,0,66.617,0,148.5S66.617,297,148.5,297S297,230.383,297,148.5S230.383,0,148.5,0z M148.5,276.085
				c-70.351,0-127.585-57.234-127.585-127.585S78.149,20.915,148.5,20.915S276.085,78.149,276.085,148.5
				S218.851,276.085,148.5,276.085z"></path>
          <path d="M148.5,36.602c-61.701,0-111.898,50.197-111.898,111.898S86.799,260.398,148.5,260.398S260.398,210.201,260.398,148.5
				S210.201,36.602,148.5,36.602z M222.849,207.831l-3.338-3.338c-4.083-4.085-10.706-4.084-14.789,0.001
				c-4.084,4.084-4.083,10.706,0.001,14.789l3.362,3.361c-13.761,11.081-30.656,18.415-49.127,20.444v-5.174
				c0-5.775-4.682-10.458-10.458-10.458s-10.458,4.683-10.458,10.458v5.174c-18.552-2.037-35.514-9.427-49.307-20.589l3.772-3.773
				c4.084-4.084,4.083-10.706-0.001-14.789c-4.083-4.085-10.706-4.084-14.789,0.001l-3.711,3.712
				c-10.886-13.681-18.087-30.416-20.094-48.693h5.174c5.775,0,10.458-4.682,10.458-10.458s-4.682-10.458-10.458-10.458h-5.174
				c2.028-18.471,9.363-35.366,20.444-49.127l3.361,3.362c2.042,2.043,4.718,3.064,7.395,3.064c2.676,0,5.352-1.021,7.394-3.063
				c4.084-4.083,4.085-10.705,0.001-14.789l-3.338-3.338c13.715-10.967,30.516-18.224,48.873-20.239v4.39
				c0,5.775,4.682,10.458,10.458,10.458s10.458-4.682,10.458-10.458v-4.39c18.277,2.007,35.011,9.208,48.693,20.094l-2.928,2.928
				c-4.084,4.084-4.083,10.706,0.001,14.789c2.042,2.043,4.717,3.063,7.394,3.063s5.353-1.021,7.395-3.064l2.986-2.987
				c11.162,13.794,18.552,30.755,20.589,49.307h-4.39c-5.775,0-10.458,4.682-10.458,10.458s4.683,10.459,10.458,10.459h4.39
				C241.072,177.315,233.815,194.116,222.849,207.831z"></path>
          <path d="M191.377,138.042h-32.419V86.799c0-5.775-4.682-10.458-10.458-10.458s-10.458,4.682-10.458,10.458V148.5
				c0,5.775,4.682,10.458,10.458,10.458h42.877c5.775,0,10.458-4.682,10.458-10.458S197.152,138.042,191.377,138.042z"></path>
        </g>
      </g>
    </g>
    <g></g>
    <g></g>
    <g></g>
    <g></g>
    <g></g>
    <g></g>
    <g></g>
    <g></g>
    <g></g>
    <g></g>
    <g></g>
    <g></g>
    <g></g>
    <g></g>
    <g></g>
  </symbol>
  <symbol version="1.1" id="computer-svgrepo-com (1)" xmlns="http://www.w3.org/2000/svg" xmlns:xlink="http://www.w3.org/1999/xlink" x="0px" y="0px" xml:space="preserve" viewBox="0 0 489.2 489.2">
    <g>
      <g>
        <g>
          <path d="M39.5,377.35h160.9v44.1H169c-5.2,0-9.5,4.2-9.5,9.5v27.5c0,5.2,4.2,9.5,9.5,9.5h151.2c5.2,0,9.5-4.2,9.5-9.5v-27.5
				c0-5.2-4.2-9.5-9.5-9.5h-31.4v-44.1h160.9c21.8,0,39.5-17.7,39.5-39.5V60.75c0-21.8-17.7-39.5-39.5-39.5H39.5
				C17.7,21.25,0,38.95,0,60.75v277.1C0,359.65,17.7,377.35,39.5,377.35z M53.9,75.15h381.4v248H53.9V75.15z M339,185.05h-15.1
				c-2.1-10.6-6.3-20.5-12.1-29.2l10.7-10.7c2.6-2.6,2.6-6.8,0-9.4l-12.8-12.8c-2.6-2.6-6.8-2.6-9.4,0l-10.8,10.6
				c-8.7-5.8-18.6-10-29.2-12.1v-15.1c0-3.7-3-6.7-6.7-6.7h-18.2c-3.7,0-6.7,3-6.7,6.7v15.1c-10.6,2.1-20.5,6.3-29.2,12.1
				l-10.7-10.7c-2.6-2.6-6.8-2.6-9.4,0l-12.8,12.8c-2.6,2.6-2.6,6.8,0,9.4l10.7,10.7c-5.8,8.7-10,18.6-12.1,29.2h-15.1
				c-3.7,0-6.7,3-6.7,6.7v18.2c0,3.7,3,6.7,6.7,6.7h15.1c2.1,10.6,6.3,20.5,12.1,29.2l-10.7,10.7c-2.6,2.6-2.6,6.8,0,9.4l12.8,12.8
				c2.6,2.6,6.8,2.6,9.4,0l10.7-10.7c8.7,5.8,18.6,10,29.2,12.1v15.1c0,3.7,3,6.7,6.7,6.7h18.2c3.7,0,6.7-3,6.7-6.7v-15.1
				c10.6-2.1,20.5-6.3,29.2-12.1l10.7,10.7c2.6,2.6,6.8,2.6,9.4,0l12.8-12.8c2.6-2.6,2.6-6.8,0-9.4l-10.7-10.7
				c5.8-8.7,10-18.6,12.1-29.2h15.1c3.7,0,6.7-3,6.7-6.7v-18.2C345.7,188.05,342.7,185.05,339,185.05z M244.6,237.35
				c-20.2,0-36.5-16.3-36.5-36.5s16.3-36.5,36.5-36.5s36.5,16.3,36.5,36.5C281.1,220.95,264.8,237.35,244.6,237.35z"></path>
        </g>
      </g>
    </g>
    <g></g>
    <g></g>
    <g></g>
    <g></g>
    <g></g>
    <g></g>
    <g></g>
    <g></g>
    <g></g>
    <g></g>
    <g></g>
    <g></g>
    <g></g>
    <g></g>
    <g></g>
  </symbol>
  <symbol version="1.1" id="computer-svgrepo-com" xmlns="http://www.w3.org/2000/svg" xmlns:xlink="http://www.w3.org/1999/xlink" x="0px" y="0px" xml:space="preserve" viewBox="0 0 389.981 389.981">
    <g>
      <path d="M145.407,248.988l-2.775,26.209c-0.224,2.115,0.46,4.225,1.883,5.806c1.422,1.581,3.449,2.483,5.576,2.483h79.301
		c2.126,0,4.153-0.903,5.576-2.483c1.422-1.581,2.106-3.691,1.883-5.806l-2.775-26.209h98.777c15.374,0,27.881-12.507,27.881-27.881
		V27.881C360.733,12.507,348.225,0,332.852,0H40.63C25.256,0,12.749,12.507,12.749,27.881v193.226
		c0,15.374,12.507,27.881,27.881,27.881H145.407z M221.055,268.487h-62.629l2.064-19.499h58.5L221.055,268.487z M40.63,15h292.222
		c7.103,0,12.881,5.778,12.881,12.881V197.99H27.749V27.881C27.749,20.778,33.527,15,40.63,15z M27.749,221.107v-8.117h317.983
		v8.117c0,7.103-5.778,12.881-12.881,12.881H40.63C33.527,233.988,27.749,228.21,27.749,221.107z"></path>
      <path d="M332.645,333.876c1.36-2.24,1.453-5.027,0.244-7.352l-14.813-28.499c-1.291-2.483-3.856-4.041-6.655-4.041H62.061
		c-2.798,0-5.364,1.558-6.655,4.041l-14.813,28.499c-1.208,2.325-1.116,5.112,0.244,7.352s3.791,3.607,6.411,3.607h278.986
		C328.854,337.484,331.285,336.116,332.645,333.876z M59.599,322.484l7.016-13.499h240.251l7.017,13.499H59.599z"></path>
      <path d="M345.733,350.982h-12c-17.368,0-31.499,14.13-31.499,31.499c0,4.142,3.358,7.5,7.5,7.5h59.997c4.142,0,7.5-3.358,7.5-7.5
		C377.232,365.113,363.102,350.982,345.733,350.982z M319.04,374.981c2.735-5.337,8.295-8.999,14.693-8.999h12
		c6.398,0,11.958,3.662,14.694,8.999H319.04z"></path>
    </g>
    <g></g>
    <g></g>
    <g></g>
    <g></g>
    <g></g>
    <g></g>
    <g></g>
    <g></g>
    <g></g>
    <g></g>
    <g></g>
    <g></g>
    <g></g>
    <g></g>
    <g></g>
  </symbol>
  <symbol version="1.1" id="gallery-svgrepo-com" xmlns="http://www.w3.org/2000/svg" xmlns:xlink="http://www.w3.org/1999/xlink" x="0px" y="0px" xml:space="preserve" viewBox="0 0 512.001 512.001">
    <path d="M470.632,37.377H41.368C18.521,37.377,0,55.898,0,78.744v354.511
	c0,22.846,18.521,41.368,41.368,41.368h429.265c22.846,0,41.368-18.521,41.368-41.368V78.744
	C512,55.898,493.479,37.377,470.632,37.377z"></path>
    <path d="M473.083,233.282V102.615c0-14.537-11.784-26.321-26.321-26.321H65.238
	c-14.537,0-26.321,11.784-26.321,26.321v240.014l50.002,45.511L473.083,233.282z"></path>
    <path d="M38.909,158.803c9.339-7.358,21.125-11.747,33.937-11.747c24.26,0,44.829,15.746,52.081,37.571
	c8.774-5.142,18.98-8.101,29.884-8.101c30.261,0,55.202,22.707,58.757,52.009c25.772,2.769,46.005,24.044,47.129,50.275
	l-63.977,62.539l-157.801,1.281L38.909,158.803z"></path>
    <path d="M157.978,310.558c0,0-68.733-25.906-119.062,32.07v66.756c0,14.537,11.784,26.321,26.321,26.321
	l104.657-79.174L157.978,310.558z"></path>
    <path d="M38.917,377.353c50.329-57.976,119.062-32.07,119.062-32.07l4.391,16.942
	l7.525-5.692l-11.916-45.974c0,0-68.733-25.906-119.062,32.07L38.917,377.353L38.917,377.353z"></path>
    <path d="M65.238,435.706c34.925-92.71,144.432-202.073,235.563-140.329l-30.288,97.379l-77.076,42.951H65.238
	z"></path>
    <path d="M297.67,305.443l3.131-10.067
	c-91.132-61.743-200.638,47.619-235.563,140.329h33.258C136.835,358.195,220.491,279.891,297.67,305.443z"></path>
    <path d="M473.083,409.385V233.282c-175.29-17.428-279.647,202.424-279.647,202.424h253.326
	C461.299,435.706,473.083,423.922,473.083,409.385z"></path>
    <path d="M473.083,255.484v-22.203c-175.29-17.428-279.647,202.424-279.647,202.424
	h35.651C259.816,382.858,345.907,257.695,473.083,255.484z"></path>
    <circle cx="343.505" cy="173.957" r="37.155"></circle>
    <path d="M317.935,185.533c0-20.517,16.633-37.15,37.15-37.15
	c7.294,0,14.092,2.111,19.832,5.743c-6.584-10.405-18.184-17.318-31.407-17.318c-20.517,0-37.15,16.633-37.15,37.15
	c0,13.223,6.914,24.823,17.318,31.407C320.046,199.626,317.935,192.828,317.935,185.533z"></path>
    <g></g>
    <g></g>
    <g></g>
    <g></g>
    <g></g>
    <g></g>
    <g></g>
    <g></g>
    <g></g>
    <g></g>
    <g></g>
    <g></g>
    <g></g>
    <g></g>
    <g></g>
  </symbol>
  <symbol version="1.1" id="growth-svgrepo-com" xmlns="http://www.w3.org/2000/svg" xmlns:xlink="http://www.w3.org/1999/xlink" x="0px" y="0px" xml:space="preserve" viewBox="0 0 490 490">
    <g>
      <g>
        <g>
          <path d="M440,450V100c0-5.522-4.477-10-10-10h-70c-5.523,0-10,4.478-10,10v350h-10V190c0-5.522-4.477-10-10-10h-70
				c-5.523,0-10,4.478-10,10v260h-10V250c0-5.522-4.477-10-10-10h-70c-5.523,0-10,4.478-10,10v200h-10V320c0-5.522-4.477-10-10-10
				H60c-5.523,0-10,4.478-10,10v130H0v20h490v-20H440z M120,450H70v-75h50V450z M120,355H70v-25h50V355z M220,450h-50V305h50V450z
				 M220,285h-50v-25h50V285z M320,450h-50V245h50V450z M320,225h-50v-25h50V225z M420,450h-50V155h50V450z M420,135h-50v-25h50V135
				z"></path>
          <path d="M57.072,282.072L285,54.143V90h20V30c0-5.522-4.477-10-10-10h-65v20h40.857L42.929,267.929L57.072,282.072z"></path>
        </g>
      </g>
    </g>
    <g></g>
    <g></g>
    <g></g>
    <g></g>
    <g></g>
    <g></g>
    <g></g>
    <g></g>
    <g></g>
    <g></g>
    <g></g>
    <g></g>
    <g></g>
    <g></g>
    <g></g>
  </symbol>
  <symbol fill="#000000" xmlns="http://www.w3.org/2000/svg" viewBox="0 0 24 24" id="icons8-done">
    <path d="M 20.292969 5.2929688 L 9 16.585938 L 4.7070312 12.292969 L 3.2929688 13.707031 L 9 19.414062 L 21.707031 6.7070312 L 20.292969 5.2929688 z"></path>
  </symbol>
  <symbol version="1.1" id="menu-svgrepo-com" xmlns="http://www.w3.org/2000/svg" xmlns:xlink="http://www.w3.org/1999/xlink" x="0px" y="0px" xml:space="preserve" viewBox="0 0 330 330">
    <g>
      <path d="M315,0H15C6.716,0,0,6.716,0,15v300c0,8.284,6.716,15,15,15h300c8.284,0,15-6.716,15-15V15C330,6.716,323.284,0,315,0z
		 M300,300H30V30h270V300z"></path>
      <path d="M90.001,109.999h150c8.284,0,15-6.716,15-15s-6.716-15-15-15h-150c-8.284,0-15,6.716-15,15S81.717,109.999,90.001,109.999z
		"></path>
      <path d="M90.001,179.999h150c8.284,0,15-6.716,15-15c0-8.284-6.716-15-15-15h-150c-8.284,0-15,6.716-15,15
		C75.001,173.283,81.717,179.999,90.001,179.999z"></path>
      <path d="M90.001,249.999h150c8.284,0,15-6.716,15-15c0-8.284-6.716-15-15-15h-150c-8.284,0-15,6.716-15,15
		C75.001,243.283,81.717,249.999,90.001,249.999z"></path>
    </g>
    <g></g>
    <g></g>
    <g></g>
    <g></g>
    <g></g>
    <g></g>
    <g></g>
    <g></g>
    <g></g>
    <g></g>
    <g></g>
    <g></g>
    <g></g>
    <g></g>
    <g></g>
  </symbol>
  <symbol version="1.1" id="quotes-svgrepo-com (1)" xmlns="http://www.w3.org/2000/svg" xmlns:xlink="http://www.w3.org/1999/xlink" x="0px" y="0px" xml:space="preserve" viewBox="0 0 32 32">
    <circle cx="9" cy="18" r="4"></circle>
    <path d="M5,18c0-4.4,3.6-8,8-8"></path>
    <circle cx="23" cy="18" r="4"></circle>
    <path d="M19,18c0-4.4,3.6-8,8-8"></path>
  </symbol>
  <symbol version="1.1" id="quotes-svgrepo-com" xmlns="http://www.w3.org/2000/svg" xmlns:xlink="http://www.w3.org/1999/xlink" x="0px" y="0px" xml:space="preserve" viewBox="0 0 32 32">
    <g>
      <path d="M13,11c0.6,0,1-0.4,1-1s-0.4-1-1-1c-5,0-9,4-9,9c0,2.8,2.2,5,5,5s5-2.2,5-5s-2.2-5-5-5c-0.3,0-0.7,0-1,0.1
		C9.3,11.8,11,11,13,11z"></path>
      <path d="M23,13c-0.3,0-0.7,0-1,0.1c1.3-1.3,3-2.1,5-2.1c0.6,0,1-0.4,1-1s-0.4-1-1-1c-5,0-9,4-9,9c0,2.8,2.2,5,5,5s5-2.2,5-5
		S25.8,13,23,13z"></path>
    </g>
  </symbol>
  <symbol version="1.1" id="search-svgrepo-com" xmlns="http://www.w3.org/2000/svg" xmlns:xlink="http://www.w3.org/1999/xlink" x="0px" y="0px" xml:space="preserve" viewBox="0 0 53.627 53.627">
    <path d="M53.627,49.385L37.795,33.553C40.423,30.046,42,25.709,42,21C42,9.42,32.58,0,21,0S0,9.42,0,21s9.42,21,21,21
	c4.709,0,9.046-1.577,12.553-4.205l15.832,15.832L53.627,49.385z M2,21C2,10.523,10.523,2,21,2s19,8.523,19,19s-8.523,19-19,19
	S2,31.477,2,21z M35.567,36.093c0.178-0.172,0.353-0.347,0.525-0.525c0.146-0.151,0.304-0.29,0.445-0.445l14.262,14.262
	l-1.415,1.415L35.123,36.537C35.278,36.396,35.416,36.238,35.567,36.093z"></path>
    <g></g>
    <g></g>
    <g></g>
    <g></g>
    <g></g>
    <g></g>
    <g></g>
    <g></g>
    <g></g>
    <g></g>
    <g></g>
    <g></g>
    <g></g>
    <g></g>
    <g></g>
  </symbol>
  <symbol version="1.1" id="settings-svgrepo-com" xmlns="http://www.w3.org/2000/svg" xmlns:xlink="http://www.w3.org/1999/xlink" x="0px" y="0px" xml:space="preserve" viewBox="0 0 489.8 489.8">
    <g>
      <g>
        <g>
          <path d="M469.1,182.95h-38.2c-3.1-8.3-6.2-16.6-10.3-23.8l26.9-26.9c8.3-8.2,8.3-20.6,0-28.9l-60-60c-8.2-8.3-20.6-8.3-28.9,0
				l-27.9,27.9c-7.2-3.1-15.5-6.2-22.7-9.3v-39.3c0-11.4-9.3-20.7-20.7-20.7h-84.8c-11.4,0-20.7,9.3-20.7,20.7v37.1
				c-8.2,3.1-15.5,6.2-22.7,9.3l-27.9-27.9c-8.2-8.3-20.6-8.3-28.9,0l-60,60c-8.3,8.2-8.3,20.6,0,28.9l26.9,26.9
				c-4.1,8.3-7.2,15.5-10.3,23.8H20.7c-11.4,0-20.7,9.3-20.7,20.7v84.8c0,11.4,9.3,20.7,20.7,20.7h35.1c3.1,8.3,6.2,16.5,10.3,24.8
				l-25.8,25.8c-4.1,4.1-11.6,16.3,0,28.9l60,60c8.2,8.3,20.6,8.3,28.9,0l24.8-24.8c8.2,5.2,16.5,8.3,25.8,11.4v34.1
				c0,11.4,9.3,20.7,20.7,20.7h84.8c11.4,0,20.7-9.3,19.7-18.5v-34.1c8.2-3.1,17.5-7.3,25.8-11.4l24.8,24.8c8.2,8.3,20.6,8.3,28.9,0
				l60-60c8.3-8.2,8.3-20.6,0-28.9l-25.8-25.8c4.1-8.3,7.2-16.5,10.3-24.8h40.1c11.4,0,20.7-9.3,20.7-20.7v-84.8
				C489.8,192.25,480.5,182.95,469.1,182.95z M445.6,266.75h-31c-9.3,0-17.5,6.2-19.6,15.5c-4.2,15.5-9.3,30-17.6,43.4
				c-5.2,8.3-3.1,18.6,3.1,24.8l21.7,21.7l-31,31l-20.7-20.7c-6.2-7.2-16.5-8.3-24.8-3.1c-14.5,8.3-29,14.5-44.5,18.6
				c-9.3,2-15.5,10.3-15.5,19.6v30h-44.5v-0.1h-1v-30c0-9.3-6.2-17.5-15.5-19.6c-15.6-4.1-31.1-10.3-44.5-18.6
				c-8.3-5.2-18.6-3.1-24.8,3.1l-20.7,20.7l-31-31l21.7-21.7c6.2-7.2,8.3-16.5,3.1-24.8c-8.3-13.4-14.5-27.9-17.6-43.4
				c-2-9.3-10.3-15.5-19.6-15.5h-31v-44.5h33.1c9.3,0,17.5-6.2,19.6-15.5c3.1-14.5,9.3-28,17.6-41.4c5.2-8.3,3.1-18.6-3.1-24.8
				l-23.8-23.8l31-31l23.8,23.8c7.2,6.2,16.5,8.3,24.8,3.1c13.5-7.2,26.9-13.4,41.4-16.5c9.3-2,15.5-10.3,15.5-19.6v-34.1h44.5v35.2
				c0,9.3,6.2,17.5,15.5,19.6c14.5,3.1,29,9.3,41.4,16.5c8.3,5.2,18.6,3.1,24.8-3.1l24.8-24.8l31,31l-23.8,23.8
				c-7.2,6.2-8.3,16.5-3.1,24.8c7.3,12.5,13.5,26.9,17.6,41.4c2,9.3,10.3,15.5,19.6,15.5h33.1V266.75z"></path>
          <path d="M242.9,132.25c-62,0-112.7,50.7-112.7,112.7s50.7,112.7,112.7,112.7c62.1,0,112.7-50.7,112.7-112.7
				S304.9,132.25,242.9,132.25z M242.9,317.35c-39.3,0-72.4-32.1-72.4-72.4c0-39.3,32.1-72.4,72.4-72.4c40.3,0,72.4,32.1,72.4,72.4
				C315.3,284.25,282.2,317.35,242.9,317.35z"></path>
        </g>
      </g>
    </g>
    <g></g>
    <g></g>
    <g></g>
    <g></g>
    <g></g>
    <g></g>
    <g></g>
    <g></g>
    <g></g>
    <g></g>
    <g></g>
    <g></g>
    <g></g>
    <g></g>
    <g></g>
  </symbol>
  <symbol version="1.1" id="wordpress-svgrepo-com" xmlns="http://www.w3.org/2000/svg" xmlns:xlink="http://www.w3.org/1999/xlink" x="0px" y="0px" xml:space="preserve" viewBox="0 0 512 512">
    <g>
      <g>
        <g>
          <path d="M41.073,152.466c-1.425-3.903-5.074-6.551-9.226-6.696c-4.175-0.132-7.977,2.245-9.669,6.039
				C7.468,184.791,0.009,219.844,0.009,255.99c0,48.964,13.875,96.559,40.124,137.639c25.548,39.983,61.564,72.053,104.158,92.743
				c1.418,0.69,2.941,1.025,4.454,1.025c2.474,0,4.921-0.9,6.836-2.629c3.085-2.785,4.172-7.164,2.747-11.068L41.073,152.466z
				 M20.408,255.99c0-24.264,3.652-47.994,10.883-70.837l98.5,269.854C61.706,412.039,20.408,337.973,20.408,255.99z"></path>
          <path d="M345.376,480.765l-75.473-206.771c-1.471-4.028-5.3-6.702-9.58-6.702c-0.032,0-0.064,0-0.096,0
				c-4.318,0.041-8.143,2.796-9.55,6.88l-73.753,214.293c-0.907,2.633-0.697,5.523,0.581,7.998c1.278,2.475,3.513,4.319,6.185,5.106
				C207.225,508.492,231.555,512,256.001,512c29.053,0,57.656-4.883,85.015-14.514c2.907-1.024,5.195-3.307,6.226-6.212
				c1.031-2.905,0.692-6.121-0.922-8.747C345.897,481.836,345.594,481.272,345.376,480.765z M256.001,491.602
				c-18.944,0-37.814-2.291-56.238-6.818l60.841-176.773l63.36,173.59C301.937,488.241,279.126,491.602,256.001,491.602z"></path>
          <path d="M373.292,403.888c4.314,0,8.167-2.717,9.612-6.788l27.138-76.438c13.018-33.396,19.346-60.555,19.346-83.022
				c0-33.87-10.023-51.413-18.869-66.891c-0.054-0.094-0.109-0.189-0.167-0.283c-0.982-1.597-1.959-3.175-2.926-4.737
				c-10.569-17.065-19.698-31.803-19.698-47.571c0-16.074,11.879-33.424,31.069-33.424c0.317,0,0.804,0.041,1.321,0.085
				c0.404,0.034,0.805,0.067,1.209,0.093c4.329,0.281,8.341-2.2,10.038-6.179c1.696-3.979,0.699-8.597-2.492-11.52
				C381.573,23.87,320.18,0,256.001,0C169.666,0,89.708,43.127,42.115,115.365c-2.031,3.083-2.238,7.022-0.541,10.3
				c1.696,3.277,5.032,5.383,8.72,5.505c6.281,0.208,11.719,0.314,16.16,0.314c23.686,0,58.376-2.55,65.182-3.068
				c1.089,1.962,1.193,6.64,0.137,8.39c-2.685,0.3-14.319,1.553-26.893,2.209c-3.185,0.166-6.108,1.811-7.902,4.449
				c-1.794,2.636-2.251,5.961-1.235,8.984l80.48,239.565c1.395,4.153,5.286,6.951,9.668,6.951c0.004,0,0.008,0,0.011,0
				c4.386-0.005,8.278-2.813,9.665-6.973l53.793-161.323c0.738-2.214,0.696-4.613-0.122-6.8l-29.269-78.243
				c-1.416-3.782-4.928-6.373-8.959-6.608c-11.584-0.675-22.772-1.988-24.791-2.231c-0.919-1.946-0.707-6.437,0.377-8.368
				c7.002,0.524,42.099,3.064,64.336,3.064c23.69,0,58.382-2.55,65.184-3.068c1.09,1.961,1.196,6.641,0.139,8.389
				c-2.677,0.3-14.328,1.554-26.896,2.211c-3.193,0.166-6.123,1.821-7.916,4.469c-1.792,2.648-2.239,5.983-1.207,9.009
				l83.404,244.49c1.401,4.108,5.25,6.879,9.59,6.906C373.25,403.888,373.27,403.888,373.292,403.888z M303.83,158.48
				c8.698-0.708,14.988-1.437,15.375-1.483c11.726-1.386,19.321-12.743,18.061-27.005c-1.206-13.633-10.034-22.696-21.423-22.014
				c-0.065,0.004-0.133,0.008-0.198,0.013c-0.395,0.031-39.714,3.092-64.716,3.092c-23.477,0-63.551-3.063-63.953-3.093
				c-0.061-0.005-0.122-0.009-0.184-0.012c-11.588-0.695-20.652,9.083-21.489,23.228c-0.836,14.126,6.861,24.914,18.351,25.817
				c1.624,0.197,9.756,1.164,19.509,1.907l25.701,68.706l-43.012,128.993l-66.564-198.143c8.736-0.709,15.053-1.442,15.444-1.488
				c11.724-1.386,19.316-12.747,18.055-27.012c-1.207-13.629-10.032-22.697-21.419-22.007c-0.065,0.004-0.133,0.008-0.198,0.013
				c-0.374,0.031-35.884,2.795-60.879,3.071c44.547-57.103,112.646-90.666,185.71-90.666c51.924,0,101.868,16.978,142.757,48.187
				c-18.452,8.187-31.428,27.326-31.428,49.574c0,21.573,11.053,39.419,22.755,58.312c0.927,1.497,1.864,3.01,2.806,4.541
				c8.29,14.509,16.097,28.269,16.097,56.629c0,19.642-6.058,45.128-18.008,75.755c-0.038,0.098-0.074,0.196-0.109,0.295
				l-17.388,48.972L303.83,158.48z"></path>
          <path d="M480.631,133.175c-2.361-4.308-7.461-6.319-12.133-4.786c-4.669,1.538-7.577,6.188-6.917,11.059
				c1.038,7.665,1.566,15.707,1.566,23.901c0,26.824-5.711,53.594-17.971,84.247c-0.06,0.15-0.116,0.302-0.169,0.454l-75.07,217.056
				c-1.393,4.031-0.132,8.504,3.164,11.213c1.868,1.534,4.166,2.319,6.479,2.319c1.765,0,3.539-0.458,5.132-1.388
				c38.017-22.163,69.889-53.921,92.171-91.842c22.969-39.088,35.109-83.839,35.109-129.417
				C511.991,213.087,501.147,170.617,480.631,133.175z M399.158,443.029l65.051-188.086c9.331-23.375,15.137-44.781,17.736-65.726
				c6.365,21.591,9.65,44.116,9.65,66.774C491.595,329.489,456.798,398.762,399.158,443.029z"></path>
        </g>
      </g>
    </g>
    <g>
      <g>
        <path d="M262.286,369.734c-5.342-1.782-11.119,1.108-12.901,6.451l-1.36,4.079c-1.781,5.343,1.108,11.119,6.451,12.901
			c1.07,0.357,2.157,0.526,3.226,0.526c4.27,0,8.25-2.703,9.675-6.977l1.36-4.079C270.518,377.292,267.629,371.516,262.286,369.734z
			"></path>
      </g>
    </g>
    <g>
      <g>
        <path d="M249.707,407.472c-5.344-1.786-11.119,1.108-12.901,6.45l-16.999,50.996c-1.781,5.343,1.108,11.119,6.451,12.9
			c1.07,0.358,2.157,0.527,3.226,0.527c4.27,0,8.25-2.703,9.675-6.977l16.998-50.996
			C257.939,415.029,255.05,409.253,249.707,407.472z"></path>
      </g>
    </g>
    <g></g>
    <g></g>
    <g></g>
    <g></g>
    <g></g>
    <g></g>
    <g></g>
    <g></g>
    <g></g>
    <g></g>
    <g></g>
    <g></g>
    <g></g>
    <g></g>
    <g></g>
  </symbol>
</svg>

<svg width="0" height="0" class="hidden">
  <symbol xmlns="http://www.w3.org/2000/svg" viewBox="0 0 48 48" id="icons8-menu">
    <path fill="#73a1b2" d="M25.457,7.504c-6.171-0.17-11.438,0.347-17.579,0.978c-0.611,0.063-1.244,0.136-1.77,0.453 c-1.354,0.815-1.381,2.156-1.244,3.731c0.045,0.522,0.163,1.146,0.65,1.338c0.135,0.053,0.283,0.064,0.429,0.074 c11.101,0.736,23.465,0.383,34.557-0.468c1.366-0.105,1.708-0.247,2.437-1.407c0.825-1.312,0.618-3.068-0.707-3.871 c-1.326-0.802-1.721-0.872-3.271-0.875C34.773,7.45,29.641,7.62,25.457,7.504z"></path>
    <path fill="#010101" d="M18.881,14.979c-4.255,0-8.643-0.115-12.972-0.402c-0.152-0.01-0.364-0.022-0.58-0.107 c-0.84-0.332-0.93-1.369-0.963-1.76C4.228,11.119,4.229,9.483,5.85,8.508c0.639-0.385,1.381-0.461,1.977-0.521 c5.787-0.595,11.256-1.161,17.644-0.981l0,0C28.058,7.078,31.02,7.038,33.883,7c1.76-0.023,3.487-0.043,5.076-0.042 c1.623,0.004,2.104,0.086,3.528,0.947c0.684,0.414,1.163,1.076,1.35,1.865c0.212,0.896,0.038,1.879-0.478,2.7 c-0.83,1.318-1.318,1.523-2.822,1.639C34.74,14.554,27.059,14.979,18.881,14.979z M23.075,7.972 c-5.341,0-10.122,0.492-15.146,1.009C7.297,9.046,6.781,9.115,6.366,9.364c-1.034,0.622-1.149,1.586-1.004,3.26 c0.046,0.538,0.159,0.847,0.335,0.916c0.067,0.026,0.183,0.033,0.275,0.039c12.594,0.833,25.706,0.207,34.489-0.467 c1.224-0.094,1.417-0.165,2.051-1.175c0.374-0.595,0.502-1.301,0.352-1.936c-0.088-0.373-0.315-0.891-0.895-1.241 c-1.239-0.749-1.533-0.799-3.013-0.803C37.371,7.953,35.651,7.977,33.896,8c-2.874,0.038-5.845,0.077-8.453,0.005l0,0 C24.64,7.982,23.852,7.972,23.075,7.972z"></path>
    <path fill="#73a1b2" d="M24.805,21.407c-5.722,0.191-11.388,0.051-17.111,0.228c-1.011,0.031-2.189,0.153-2.727,1.009 c-0.53,0.844-0.354,2.297-0.215,3.315c0.124,0.906,0.713,1.324,1.623,1.415c1.055,0.106,2.48,0.064,3.542,0.083 c9.226,0.17,19.083-0.229,28.12-0.008c1.239,0.03,2.573-0.209,3.492-1.04c0.753-0.681,1.083-1.731,1.122-2.746 c0.033-0.861-0.162-1.803-0.827-2.351c-0.651-0.537-1.571-0.559-2.415-0.554C34.351,20.788,29.861,21.239,24.805,21.407z"></path>
    <path fill="#010101" d="M15.117,28.002c-1.754,0-3.497-0.013-5.209-0.044c-1.052-0.021-2.492,0.023-3.582-0.086 c-1.521-0.151-1.965-1.087-2.069-1.845c-0.173-1.268-0.308-2.7,0.288-3.648c0.735-1.17,2.356-1.22,3.135-1.244 c2.804-0.086,5.637-0.097,8.376-0.107c2.859-0.011,5.815-0.022,8.733-0.12l0,0c2.062-0.068,4.057-0.187,5.986-0.3 c2.768-0.163,5.63-0.331,8.632-0.349c0.767,0,1.911-0.011,2.735,0.669c0.697,0.572,1.055,1.552,1.008,2.756 c-0.05,1.293-0.507,2.393-1.286,3.098c-1.124,1.017-2.714,1.195-3.84,1.169c-4.692-0.114-9.705-0.061-14.55-0.009 C20.718,27.972,17.904,28.002,15.117,28.002z M24.822,21.907c-2.933,0.098-5.897,0.109-8.763,0.12 c-2.733,0.011-5.56,0.021-8.349,0.107c-0.97,0.029-1.923,0.145-2.319,0.775c-0.452,0.721-0.251,2.191-0.143,2.982 c0.06,0.435,0.246,0.892,1.177,0.985c1.035,0.104,2.465,0.062,3.501,0.08c4.418,0.082,9.054,0.032,13.538-0.017 c4.855-0.052,9.875-0.105,14.585,0.009c0.95,0.026,2.266-0.116,3.145-0.911c0.78-0.705,0.935-1.803,0.958-2.395 c0.02-0.512-0.038-1.445-0.645-1.945c-0.504-0.414-1.284-0.442-2.094-0.44c-2.976,0.018-5.698,0.178-8.58,0.347 C28.898,21.72,26.896,21.838,24.822,21.907L24.822,21.907z"></path>
    <path fill="#73a1b2" d="M23.814,33.916c-5.881,0.053-11.022-0.458-16.907-0.229c-0.386,0.015-0.795,0.112-1.069,0.385 c-0.377,0.376-0.343,0.985-0.283,1.514l0.133,1.173c0.114,1.008,1.017,2.776,2.032,2.782c8.718,0.05,16.994,0.025,25.712-0.074 c1.72-0.02,3.444-0.042,5.154-0.226c1.07-0.115,2.134-0.292,3.184-0.532c0.394-0.09,0.813-0.205,1.074-0.513 c0.214-0.254,0.285-0.597,0.33-0.926c0.08-0.579,0.105-1.165,0.077-1.748c-0.05-1.034-0.899-1.865-1.933-1.895 C35.427,33.455,29.755,33.863,23.814,33.916z"></path>
    <path fill="#010101" d="M16.402,40.067c-2.868,0-5.748-0.008-8.687-0.025c-1.398-0.008-2.402-2.136-2.525-3.226 l-0.133-1.173c-0.053-0.471-0.152-1.347,0.427-1.926c0.326-0.324,0.811-0.508,1.403-0.53c3.345-0.128,6.51-0.021,9.571,0.085 c2.362,0.082,4.802,0.169,7.351,0.144l0,0c2.266-0.021,4.527-0.093,6.714-0.164c3.518-0.114,7.154-0.23,10.808-0.124 c1.293,0.038,2.355,1.079,2.418,2.371c0.03,0.614,0.003,1.233-0.081,1.841c-0.055,0.405-0.147,0.83-0.443,1.18 c-0.359,0.425-0.883,0.572-1.346,0.678c-1.064,0.243-2.155,0.425-3.241,0.542c-1.765,0.189-3.591,0.21-5.202,0.229 C27.573,40.035,22.011,40.067,16.402,40.067z M10.118,34.127c-1.043,0-2.101,0.018-3.192,0.061 C6.594,34.2,6.333,34.285,6.19,34.427C5.981,34.635,6,35.08,6.051,35.53l0.133,1.173c0.106,0.942,0.935,2.335,1.538,2.339 c8.681,0.052,16.849,0.027,25.703-0.074c1.667-0.019,3.39-0.038,5.107-0.223c1.047-0.113,2.099-0.289,3.125-0.522 c0.319-0.073,0.645-0.16,0.804-0.349c0.13-0.154,0.181-0.413,0.216-0.67c0.076-0.547,0.1-1.104,0.073-1.656 c-0.038-0.773-0.674-1.397-1.448-1.42c-3.623-0.106-7.244,0.01-10.747,0.124c-2.192,0.07-4.459,0.144-6.737,0.164l0,0 c-2.565,0.028-5.021-0.062-7.394-0.144C14.291,34.198,12.237,34.127,10.118,34.127z"></path>
  </symbol>
</svg>